<mxfile host="app.diagrams.net" modified="2022-10-27T15:20:08.149Z" agent="5.0 (Windows NT 10.0; Win64; x64) AppleWebKit/537.36 (KHTML, like Gecko) Chrome/106.0.0.0 Safari/537.36" etag="4GrMcJ1z02tW2KQjWqzn" version="20.5.1" type="github">
  <diagram id="k_mQLQQeRcscMPAkfr1K" name="Page-1">
    <mxGraphModel dx="2272" dy="794" grid="1" gridSize="10" guides="1" tooltips="1" connect="1" arrows="1" fold="1" page="1" pageScale="1" pageWidth="850" pageHeight="1100" math="0" shadow="0">
      <root>
        <mxCell id="0" />
        <mxCell id="1" parent="0" />
        <mxCell id="R9fJtgLE9qpKzejMpYKI-48" style="edgeStyle=orthogonalEdgeStyle;rounded=0;orthogonalLoop=1;jettySize=auto;html=1;exitX=1;exitY=0.3333333333333333;exitDx=0;exitDy=0;exitPerimeter=0;entryX=0;entryY=0.25;entryDx=0;entryDy=0;" edge="1" parent="1" source="R9fJtgLE9qpKzejMpYKI-1" target="R9fJtgLE9qpKzejMpYKI-5">
          <mxGeometry relative="1" as="geometry" />
        </mxCell>
        <mxCell id="R9fJtgLE9qpKzejMpYKI-1" value="Пользователь" style="shape=umlActor;verticalLabelPosition=bottom;verticalAlign=top;html=1;outlineConnect=0;" vertex="1" parent="1">
          <mxGeometry x="-10" y="490" width="40" height="80" as="geometry" />
        </mxCell>
        <mxCell id="R9fJtgLE9qpKzejMpYKI-24" style="edgeStyle=orthogonalEdgeStyle;rounded=0;orthogonalLoop=1;jettySize=auto;html=1;exitX=1;exitY=0.5;exitDx=0;exitDy=0;entryX=0;entryY=0.5;entryDx=0;entryDy=0;" edge="1" parent="1" source="R9fJtgLE9qpKzejMpYKI-3" target="R9fJtgLE9qpKzejMpYKI-8">
          <mxGeometry relative="1" as="geometry" />
        </mxCell>
        <mxCell id="R9fJtgLE9qpKzejMpYKI-3" value="Запрос на сервер" style="ellipse;whiteSpace=wrap;html=1;" vertex="1" parent="1">
          <mxGeometry x="150" y="410" width="80" height="40" as="geometry" />
        </mxCell>
        <mxCell id="R9fJtgLE9qpKzejMpYKI-54" style="edgeStyle=orthogonalEdgeStyle;rounded=0;orthogonalLoop=1;jettySize=auto;html=1;exitX=1;exitY=0.5;exitDx=0;exitDy=0;" edge="1" parent="1" source="R9fJtgLE9qpKzejMpYKI-4" target="R9fJtgLE9qpKzejMpYKI-9">
          <mxGeometry relative="1" as="geometry" />
        </mxCell>
        <mxCell id="R9fJtgLE9qpKzejMpYKI-4" value="Запрос локальный" style="ellipse;whiteSpace=wrap;html=1;" vertex="1" parent="1">
          <mxGeometry x="140" y="620" width="80" height="40" as="geometry" />
        </mxCell>
        <mxCell id="R9fJtgLE9qpKzejMpYKI-25" style="edgeStyle=orthogonalEdgeStyle;rounded=0;orthogonalLoop=1;jettySize=auto;html=1;exitX=1;exitY=1;exitDx=0;exitDy=0;" edge="1" parent="1" source="R9fJtgLE9qpKzejMpYKI-5" target="R9fJtgLE9qpKzejMpYKI-4">
          <mxGeometry relative="1" as="geometry" />
        </mxCell>
        <mxCell id="R9fJtgLE9qpKzejMpYKI-5" value="Вход в систему" style="whiteSpace=wrap;html=1;aspect=fixed;" vertex="1" parent="1">
          <mxGeometry x="70" y="490" width="50" height="50" as="geometry" />
        </mxCell>
        <mxCell id="R9fJtgLE9qpKzejMpYKI-35" style="edgeStyle=orthogonalEdgeStyle;rounded=0;orthogonalLoop=1;jettySize=auto;html=1;exitX=0.5;exitY=0;exitDx=0;exitDy=0;entryX=0.5;entryY=1;entryDx=0;entryDy=0;" edge="1" parent="1" source="R9fJtgLE9qpKzejMpYKI-8" target="R9fJtgLE9qpKzejMpYKI-36">
          <mxGeometry relative="1" as="geometry" />
        </mxCell>
        <mxCell id="R9fJtgLE9qpKzejMpYKI-50" style="edgeStyle=orthogonalEdgeStyle;rounded=0;orthogonalLoop=1;jettySize=auto;html=1;exitX=1;exitY=0.5;exitDx=0;exitDy=0;entryX=0;entryY=0.5;entryDx=0;entryDy=0;" edge="1" parent="1" source="R9fJtgLE9qpKzejMpYKI-8" target="R9fJtgLE9qpKzejMpYKI-49">
          <mxGeometry relative="1" as="geometry" />
        </mxCell>
        <mxCell id="R9fJtgLE9qpKzejMpYKI-8" value="Проверка&lt;br&gt;на&lt;br&gt;наличие пользователя&lt;br&gt;в бд, проверка данных" style="ellipse;whiteSpace=wrap;html=1;" vertex="1" parent="1">
          <mxGeometry x="290" y="370" width="160" height="80" as="geometry" />
        </mxCell>
        <mxCell id="R9fJtgLE9qpKzejMpYKI-22" style="edgeStyle=orthogonalEdgeStyle;rounded=0;orthogonalLoop=1;jettySize=auto;html=1;exitX=1;exitY=0.5;exitDx=0;exitDy=0;entryX=0;entryY=0.5;entryDx=0;entryDy=0;" edge="1" parent="1" source="R9fJtgLE9qpKzejMpYKI-9" target="R9fJtgLE9qpKzejMpYKI-14">
          <mxGeometry relative="1" as="geometry" />
        </mxCell>
        <mxCell id="R9fJtgLE9qpKzejMpYKI-23" style="edgeStyle=orthogonalEdgeStyle;rounded=0;orthogonalLoop=1;jettySize=auto;html=1;" edge="1" parent="1" source="R9fJtgLE9qpKzejMpYKI-9" target="R9fJtgLE9qpKzejMpYKI-20">
          <mxGeometry relative="1" as="geometry" />
        </mxCell>
        <mxCell id="R9fJtgLE9qpKzejMpYKI-9" value="Проверка на наличие обновление, целостности" style="ellipse;whiteSpace=wrap;html=1;" vertex="1" parent="1">
          <mxGeometry x="300" y="550" width="120" height="80" as="geometry" />
        </mxCell>
        <mxCell id="R9fJtgLE9qpKzejMpYKI-10" value="" style="curved=1;endArrow=classic;html=1;rounded=0;entryX=0.048;entryY=0.69;entryDx=0;entryDy=0;entryPerimeter=0;" edge="1" parent="1" target="R9fJtgLE9qpKzejMpYKI-3">
          <mxGeometry width="50" height="50" relative="1" as="geometry">
            <mxPoint x="120" y="490" as="sourcePoint" />
            <mxPoint x="170" y="440" as="targetPoint" />
            <Array as="points">
              <mxPoint x="120" y="440" />
            </Array>
          </mxGeometry>
        </mxCell>
        <mxCell id="R9fJtgLE9qpKzejMpYKI-32" style="edgeStyle=orthogonalEdgeStyle;rounded=0;orthogonalLoop=1;jettySize=auto;html=1;exitX=1;exitY=0.5;exitDx=0;exitDy=0;" edge="1" parent="1" source="R9fJtgLE9qpKzejMpYKI-12" target="R9fJtgLE9qpKzejMpYKI-31">
          <mxGeometry relative="1" as="geometry" />
        </mxCell>
        <mxCell id="R9fJtgLE9qpKzejMpYKI-12" value="Авторизация" style="rounded=0;whiteSpace=wrap;html=1;" vertex="1" parent="1">
          <mxGeometry x="560" y="480" width="100" height="40" as="geometry" />
        </mxCell>
        <mxCell id="R9fJtgLE9qpKzejMpYKI-16" style="edgeStyle=orthogonalEdgeStyle;rounded=0;orthogonalLoop=1;jettySize=auto;html=1;" edge="1" parent="1" source="R9fJtgLE9qpKzejMpYKI-14" target="R9fJtgLE9qpKzejMpYKI-12">
          <mxGeometry relative="1" as="geometry" />
        </mxCell>
        <mxCell id="R9fJtgLE9qpKzejMpYKI-14" value="Успешно" style="shape=step;perimeter=stepPerimeter;whiteSpace=wrap;html=1;fixedSize=1;" vertex="1" parent="1">
          <mxGeometry x="550" y="590" width="120" height="20" as="geometry" />
        </mxCell>
        <mxCell id="R9fJtgLE9qpKzejMpYKI-21" style="edgeStyle=orthogonalEdgeStyle;rounded=0;orthogonalLoop=1;jettySize=auto;html=1;exitX=1;exitY=0.5;exitDx=0;exitDy=0;entryX=0.5;entryY=1;entryDx=0;entryDy=0;" edge="1" parent="1" source="R9fJtgLE9qpKzejMpYKI-20" target="R9fJtgLE9qpKzejMpYKI-3">
          <mxGeometry relative="1" as="geometry">
            <Array as="points">
              <mxPoint x="290" y="690" />
              <mxPoint x="290" y="565" />
              <mxPoint x="190" y="565" />
            </Array>
          </mxGeometry>
        </mxCell>
        <mxCell id="R9fJtgLE9qpKzejMpYKI-20" value="Ошибка" style="shape=step;perimeter=stepPerimeter;whiteSpace=wrap;html=1;fixedSize=1;" vertex="1" parent="1">
          <mxGeometry x="260" y="680" width="120" height="20" as="geometry" />
        </mxCell>
        <mxCell id="R9fJtgLE9qpKzejMpYKI-27" value="Загрузка главного экрана" style="shape=step;perimeter=stepPerimeter;whiteSpace=wrap;html=1;fixedSize=1;" vertex="1" parent="1">
          <mxGeometry x="850" y="480" width="140" height="40" as="geometry" />
        </mxCell>
        <mxCell id="R9fJtgLE9qpKzejMpYKI-33" style="edgeStyle=orthogonalEdgeStyle;rounded=0;orthogonalLoop=1;jettySize=auto;html=1;exitX=1;exitY=0.5;exitDx=0;exitDy=0;entryX=0;entryY=0.5;entryDx=0;entryDy=0;" edge="1" parent="1" source="R9fJtgLE9qpKzejMpYKI-31" target="R9fJtgLE9qpKzejMpYKI-27">
          <mxGeometry relative="1" as="geometry" />
        </mxCell>
        <mxCell id="R9fJtgLE9qpKzejMpYKI-31" value="Защитный экран&lt;br&gt;Пин-код, отпечаток пальца" style="rounded=0;whiteSpace=wrap;html=1;" vertex="1" parent="1">
          <mxGeometry x="700" y="470" width="120" height="60" as="geometry" />
        </mxCell>
        <mxCell id="R9fJtgLE9qpKzejMpYKI-41" style="edgeStyle=orthogonalEdgeStyle;rounded=0;orthogonalLoop=1;jettySize=auto;html=1;exitX=0;exitY=0.25;exitDx=0;exitDy=0;entryX=1;entryY=0.5;entryDx=0;entryDy=0;" edge="1" parent="1" source="R9fJtgLE9qpKzejMpYKI-36" target="R9fJtgLE9qpKzejMpYKI-40">
          <mxGeometry relative="1" as="geometry" />
        </mxCell>
        <mxCell id="R9fJtgLE9qpKzejMpYKI-36" value="Ошибка" style="shape=step;perimeter=stepPerimeter;whiteSpace=wrap;html=1;fixedSize=1;" vertex="1" parent="1">
          <mxGeometry x="320" y="210" width="120" height="20" as="geometry" />
        </mxCell>
        <mxCell id="R9fJtgLE9qpKzejMpYKI-44" style="edgeStyle=orthogonalEdgeStyle;rounded=0;orthogonalLoop=1;jettySize=auto;html=1;exitX=0;exitY=0.5;exitDx=0;exitDy=0;entryX=1;entryY=0.5;entryDx=0;entryDy=0;" edge="1" parent="1" source="R9fJtgLE9qpKzejMpYKI-40" target="R9fJtgLE9qpKzejMpYKI-42">
          <mxGeometry relative="1" as="geometry" />
        </mxCell>
        <mxCell id="R9fJtgLE9qpKzejMpYKI-40" value="Новый пользователь&lt;br&gt;" style="rounded=1;whiteSpace=wrap;html=1;" vertex="1" parent="1">
          <mxGeometry x="130" y="190" width="135" height="60" as="geometry" />
        </mxCell>
        <mxCell id="R9fJtgLE9qpKzejMpYKI-45" style="edgeStyle=orthogonalEdgeStyle;rounded=0;orthogonalLoop=1;jettySize=auto;html=1;" edge="1" parent="1" source="R9fJtgLE9qpKzejMpYKI-42">
          <mxGeometry relative="1" as="geometry">
            <mxPoint x="25" y="350" as="targetPoint" />
          </mxGeometry>
        </mxCell>
        <mxCell id="R9fJtgLE9qpKzejMpYKI-42" value="Регистрация/&lt;br&gt;Ввод данных" style="rounded=0;whiteSpace=wrap;html=1;" vertex="1" parent="1">
          <mxGeometry x="-30" y="190" width="100" height="60" as="geometry" />
        </mxCell>
        <mxCell id="R9fJtgLE9qpKzejMpYKI-47" style="edgeStyle=orthogonalEdgeStyle;rounded=0;orthogonalLoop=1;jettySize=auto;html=1;exitX=1;exitY=0.5;exitDx=0;exitDy=0;entryX=0.5;entryY=0;entryDx=0;entryDy=0;" edge="1" parent="1" source="R9fJtgLE9qpKzejMpYKI-43" target="R9fJtgLE9qpKzejMpYKI-3">
          <mxGeometry relative="1" as="geometry" />
        </mxCell>
        <mxCell id="R9fJtgLE9qpKzejMpYKI-43" value="Запись в бд" style="rhombus;whiteSpace=wrap;html=1;" vertex="1" parent="1">
          <mxGeometry x="-30" y="350" width="110" height="80" as="geometry" />
        </mxCell>
        <mxCell id="R9fJtgLE9qpKzejMpYKI-52" style="edgeStyle=orthogonalEdgeStyle;rounded=0;orthogonalLoop=1;jettySize=auto;html=1;exitX=1;exitY=0.5;exitDx=0;exitDy=0;entryX=0.65;entryY=0.025;entryDx=0;entryDy=0;entryPerimeter=0;" edge="1" parent="1" source="R9fJtgLE9qpKzejMpYKI-49" target="R9fJtgLE9qpKzejMpYKI-12">
          <mxGeometry relative="1" as="geometry" />
        </mxCell>
        <mxCell id="R9fJtgLE9qpKzejMpYKI-49" value="Успешно" style="shape=step;perimeter=stepPerimeter;whiteSpace=wrap;html=1;fixedSize=1;" vertex="1" parent="1">
          <mxGeometry x="490" y="400" width="120" height="20" as="geometry" />
        </mxCell>
      </root>
    </mxGraphModel>
  </diagram>
</mxfile>
